<?xml version="1.0" encoding="utf-8"?>
<!-- Generator: Adobe Illustrator 26.2.1, SVG Export Plug-In . SVG Version: 6.00 Build 0)  -->
<svg version="1.1" id="Layer_1" xmlns="http://www.w3.org/2000/svg" xmlns:xlink="http://www.w3.org/1999/xlink" x="0px" y="0px"
	 viewBox="0 0 107.9 55" style="enable-background:new 0 0 107.9 55;" xml:space="preserve">
<style type="text/css">
	.st0{fill:#FFFFFF;}
</style>
<g id="a">
</g>
<g id="b">
	<g id="c">
		<g>
			<g>
				<path class="st0" d="M38.8,52.9C34.4,54.3,29.9,55,26,55C10.8,55,0,45.8,0,27.1C0,11.4,8.8,0,25.9,0c6.8,0,11.3,1.9,12.6,2.4
					l-0.8,11.7c-1.6-1-5.7-3.1-10.1-3.1c-9,0-13.1,5.9-13.1,16.3c0,9.1,4.9,16.2,13.7,16.2c5,0,8.7-2.1,10-3L38.8,52.9L38.8,52.9
					L38.8,52.9z"/>
				<path class="st0" d="M42.4,41.3c1.7,1,6.8,3.2,11.8,3.2c5.3,0,7.2-2.4,7.2-5.7S59,34.3,55,32.7l-3.1-1.2
					c-8.6-3.4-11.2-8.1-11.2-15.7C40.7,5.7,48.6,0,59.7,0c4,0,8.9,0.4,13.1,2.1l-0.6,10.4c-2.5-1.3-6.7-2.7-10.7-2.7s-6.7,1.8-6.7,5
					c0,2.7,1.3,4,6,6.1l6.3,2.9c4.7,2.2,8.8,5.6,8.8,13.5c0,11.7-8.2,17.6-20.4,17.6c-6.3,0-11.3-1.4-13.9-2.1L42.4,41.3L42.4,41.3
					L42.4,41.3z"/>
			</g>
			<polygon class="st0" points="78.6,0.9 78.6,54.1 107.9,54.1 107.9,43.3 92.6,43.3 92.6,0.9 			"/>
		</g>
	</g>
</g>
</svg>
