<svg xmlns="http://www.w3.org/2000/svg" viewBox="0 0 102.86 102.86"><defs><style>.cls-1{fill:#fff;}</style></defs><title>Instagram</title><g id="Layer_2" data-name="Layer 2"><g id="Layer_1-2" data-name="Layer 1"><path class="cls-1" d="M102.86,59.36q0,14.94-.35,21.47a43.48,43.48,0,0,1-2,11.37,26.89,26.89,0,0,1-16.3,16.3,43.32,43.32,0,0,1-11.36,2q-6.56.35-21.47.34T30,110.45a37.6,37.6,0,0,1-11.36-2.18,24.54,24.54,0,0,1-10-6.09,26.69,26.69,0,0,1-6.31-10,43,43,0,0,1-2-11.37Q0,74.29,0,59.36T.34,37.9a43,43,0,0,1,2-11.37,26.83,26.83,0,0,1,16.3-16.3A43.32,43.32,0,0,1,30,8.28q6.54-.34,21.47-.34t21.47.34a43.32,43.32,0,0,1,11.36,2,26.83,26.83,0,0,1,16.3,16.3A47,47,0,0,1,102.63,38Q102.86,44.44,102.86,59.36ZM93.44,77.27q.23-5,.23-14.23V55.69q0-9.4-.23-14.23c-.31-5.82-.91-9.95-1.83-12.4a16.57,16.57,0,0,0-9.88-9.87q-3.67-1.38-12.39-1.84-5.06-.23-14.24-.23H47.75q-9.18,0-14.23.23-8.49.46-12.4,1.84a16.58,16.58,0,0,0-9.87,9.87q-1.38,3.68-1.84,12.4-.23,5-.23,14.23V63q0,9.18.23,14.23.46,8.51,1.84,12.4a17.37,17.37,0,0,0,9.87,9.87q3.9,1.38,12.4,1.84,5.06.23,14.23.23H55.1q9.42,0,14.24-.23,8.72-.47,12.39-1.84a17.41,17.41,0,0,0,9.88-9.87C92.53,87.07,93.13,82.94,93.44,77.27ZM64.63,36.52a26.52,26.52,0,0,1,9.64,9.64,26.27,26.27,0,0,1,0,26.41,26.52,26.52,0,0,1-9.64,9.64,26.25,26.25,0,0,1-26.4,0,26.55,26.55,0,0,1-9.65-9.64,26.33,26.33,0,0,1,0-26.41,26.55,26.55,0,0,1,9.65-9.64,26.25,26.25,0,0,1,26.4,0Zm-1,35a17.18,17.18,0,0,0,0-24.33,17.17,17.17,0,0,0-24.34,0,17.18,17.18,0,0,0,0,24.33,17.19,17.19,0,0,0,24.34,0ZM83.34,27.45a6.2,6.2,0,0,0-10.56,4.36A6.28,6.28,0,0,0,79,38a5.59,5.59,0,0,0,4.25-1.84,7.15,7.15,0,0,0,2-4.36A6,6,0,0,0,83.34,27.45Z" transform="translate(0 -7.94)"/></g></g></svg>