<svg xmlns="http://www.w3.org/2000/svg" viewBox="0 0 120 120"><defs><style>.a{fill:#fff;}.b{fill:none;}</style></defs><title>social-icon</title><path class="a" d="M23.28,34a11.14,11.14,0,0,1-8.16-3.44,11.11,11.11,0,0,1-3.44-8.16,11.14,11.14,0,0,1,3.44-8.17,11.4,11.4,0,0,1,16.32,0,11.41,11.41,0,0,1,0,16.33A11.15,11.15,0,0,1,23.28,34Zm9.88,73h-20V42.79h20Zm74.77,0H88V75.66q0-7.74-1.29-11.17-2.37-5.8-9.24-5.81t-9.67,5.16Q65.6,67.71,65.6,75.23V107H45.84V42.79H65v8.8h.21a17.25,17.25,0,0,1,6.88-7.09,21.25,21.25,0,0,1,12-3.43q14,0,19.55,8.81,4.29,7.08,4.3,21.91Z"/><rect class="b" width="120" height="120"/></svg>