<svg xmlns="http://www.w3.org/2000/svg" viewBox="0 0 120 120"><defs><style>.a{fill:#fff;}.b{fill:none;}</style></defs><title>social-icon</title><path class="a" d="M105.49,37.84a13.59,13.59,0,0,1,.23,2.95,67.26,67.26,0,0,1-7.93,31.49,64.7,64.7,0,0,1-22.88,25.6Q58.82,108.53,38,108.53A66,66,0,0,1,1.5,97.88c1.66.15,3.55.23,5.66.23a47.14,47.14,0,0,0,29.68-10.2,22.08,22.08,0,0,1-13.93-4.64A23.71,23.71,0,0,1,14.64,71.6c1.51.15,2.95.23,4.31.23a30.44,30.44,0,0,0,6.34-.68A23.9,23.9,0,0,1,11.7,62.76,22.75,22.75,0,0,1,6.26,47.81v-.45a22.41,22.41,0,0,0,10.65,3.17A26.27,26.27,0,0,1,9.2,41.92a23.09,23.09,0,0,1,.46-23.34A65.52,65.52,0,0,0,31.29,36.26a66,66,0,0,0,27.3,7.25,33.37,33.37,0,0,1-.45-5.44A24,24,0,0,1,69.92,17.45,23,23,0,0,1,81.7,14.28a22.66,22.66,0,0,1,9.63,2,26.86,26.86,0,0,1,7.82,5.44,48.5,48.5,0,0,0,15.18-5.67,23.61,23.61,0,0,1-10.42,13.14,50.68,50.68,0,0,0,13.59-3.85A52.09,52.09,0,0,1,105.49,37.84Z"/><rect class="b" width="120" height="120"/></svg>