<svg xmlns="http://www.w3.org/2000/svg" viewBox="0 0 120 120"><defs><style>.a{fill:#fff;}.b{fill:none;}</style></defs><title>social-icon</title><path class="a" d="M119.24,52.91l.22,10.74-.22,10.75q-.64,12-2.15,17.83a15,15,0,0,1-3.87,6.44,14.75,14.75,0,0,1-6.66,3.87Q101,104,80.35,104.69l-19.55.21-19.55-.21Q20.63,104,15,102.54a14.75,14.75,0,0,1-6.66-3.87,15,15,0,0,1-3.87-6.44Q3,86.43,2.37,74.4L2.15,63.65c0-3.14.07-6.73.22-10.74Q3,41.11,4.51,35.3A15,15,0,0,1,15,24.77q5.58-1.5,26.21-2.15L60.8,22.4l19.55.22q20.63.64,26.21,2.15A15,15,0,0,1,117.09,35.3Q118.59,41.09,119.24,52.91ZM79.49,63.65,48.77,46.25v35Z"/><rect class="b" width="120" height="120"/></svg>